<?xml version="1.0" encoding="utf-8"?>
<!-- Generator: Adobe Illustrator 18.1.0, SVG Export Plug-In . SVG Version: 6.00 Build 0)  -->
<svg version="1.1"
	 id="svg2" xmlns:dc="http://purl.org/dc/elements/1.1/" xmlns:svg="http://www.w3.org/2000/svg" xmlns:rdf="http://www.w3.org/1999/02/22-rdf-syntax-ns#" xmlns:cc="http://creativecommons.org/ns#"
	 xmlns="http://www.w3.org/2000/svg" xmlns:xlink="http://www.w3.org/1999/xlink" x="0px" y="0px" viewBox="25.667 6 136 38"
	 enable-background="new 25.667 6 136 38" xml:space="preserve">
<g id="g10" transform="matrix(1.3333333,0,0,-1.3333333,0,56)">
</g>
<g>
	<path fill-rule="evenodd" clip-rule="evenodd" fill="#27348B" d="M137.66,19.969c-1.875,0.001-3.468,0.618-4.761,1.856
		c-1.412,1.358-2.109,3.157-2.109,5.368c0,2.105,0.653,3.852,1.974,5.214c1.3,1.334,2.94,1.999,4.896,1.999
		c1.829,0,3.4-0.6,4.698-1.803c1.454-1.352,2.172-3.165,2.172-5.411c0-2.211-0.693-4.007-2.099-5.358
		C141.137,20.59,139.542,19.969,137.66,19.969z M140.476,31.738c-0.789,0.925-1.724,1.372-2.816,1.372
		c-1.118,0-2.061-0.459-2.842-1.406c-0.77-0.94-1.181-2.425-1.181-4.51c0-2.093,0.411-3.576,1.18-4.51
		c0.789-0.955,1.731-1.417,2.842-1.417c1.072,0.001,2.004,0.445,2.808,1.365c0.782,0.897,1.205,2.395,1.205,4.562
		C141.673,29.332,141.254,30.827,140.476,31.738z"/>
	<path fill-rule="evenodd" clip-rule="evenodd" fill="#27348B" d="M111.15,23.479v10.643h2.613V20.254h-4.887
		C110.353,20.254,111.15,21.92,111.15,23.479z"/>
	<path fill-rule="evenodd" clip-rule="evenodd" fill="#27348B" d="M72.282,23.476l-0.001,5.247c0,1.27-0.156,2.163-0.439,2.717
		c-0.498,0.972-1.477,1.493-3.053,1.493c-1.423,0-2.321-0.5-2.796-1.451c-0.261-0.533-0.402-1.303-0.402-2.337l-0.001-8.892h-4.888
		c1.479,0,2.276,1.666,2.276,3.224v5.522c0,1.272,0.216,2.326,0.674,3.142c0.852,1.535,2.449,2.265,4.685,2.265
		c2.261,0,3.874-0.741,4.725-2.297c0.458-0.837,0.673-1.975,0.673-3.386V20.25h-3.729C71.485,20.25,72.282,21.916,72.282,23.476z"/>
	<path fill-rule="evenodd" clip-rule="evenodd" fill="#27348B" d="M84.841,20.254c1.479,0,2.276,1.666,2.276,3.226l0.001,5.923
		l-7.321-9.149h-4.19c1.479,0,2.275,1.666,2.275,3.226v10.643h1.454V23.86l8.28,10.263h0.956l-0.001-13.869H84.841z"/>
	<path fill-rule="evenodd" clip-rule="evenodd" fill="#27348B" d="M56.698,8.884c0,0-5.357,0.061-5.784,3.652
		c0,0-0.243,2.374-0.304,3.044c-0.121,1.552-1.857,1.522-2.831,1.887c-3.927,1.4-3.987,6.391-3.987,7.487v6.483
		c0,1.795-1.431,3.226-3.226,3.226c-1.766,0-3.226-1.431-3.226-3.226V20.176h-6.452v11.262c0,5.356,4.352,9.679,9.678,9.679
		c5.357,0,9.678-4.322,9.678-9.679v-6.483c0-1.004,0.031-6.087,3.988-7.487c0.975-0.365,2.709-0.335,2.831-1.887
		c0.061-0.669,0.305-3.044,0.305-3.044c0.273-2.466,2.86-3.257,4.473-3.652H56.698z"/>
	<path fill-rule="evenodd" clip-rule="evenodd" fill="#27348B" d="M104.492,26.243l-2.055-1.09
		c-0.754-0.397-1.289-0.769-1.623-1.109c-0.31-0.311-0.468-0.686-0.468-1.14c0-0.5,0.199-0.861,0.582-1.121
		c0.418-0.285,0.91-0.5,1.471-0.429c2.311,0.295,4.756,2.047,4.756,2.047v-3.433c0,0-0.632,0.849-1.718,0.677
		c-0.034-0.006-0.388-0.083-1.18-0.318c-0.766-0.235-1.443-0.36-2.028-0.36c-1.366,0-2.495,0.358-3.352,1.095
		c-0.851,0.731-1.274,1.649-1.274,2.734c0,0.844,0.37,1.612,1.08,2.292c0.382,0.358,0.89,0.705,1.508,1.041l1.998,1.069
		c1.152,0.618,1.872,1.062,2.2,1.343c0.49,0.433,0.726,0.931,0.726,1.508c0,0.659-0.246,1.141-0.707,1.482
		c-0.477,0.359-0.667,0.53-1.712,0.539c-2.17,0.017-3.82-1.304-4.753-2.299v2.031c0.975,0.667,2.718,1.585,4.935,1.585
		c1.506,0,2.768-0.37,3.76-1.132c0.998-0.76,1.504-1.717,1.504-2.854c0-0.842-0.281-1.587-0.847-2.217
		C106.735,27.578,105.789,26.93,104.492,26.243z"/>
	<path fill-rule="evenodd" clip-rule="evenodd" fill="#27348B" d="M126.916,23.479l0.001,5.923l-7.321-9.149h-4.189
		c1.477,0,2.275,1.666,2.275,3.226v10.643h1.454V23.86l8.28,10.263h0.955V20.254h-3.729C126.12,20.254,126.916,21.92,126.916,23.479
		z"/>
	<path fill-rule="evenodd" clip-rule="evenodd" fill="#27348B" d="M92.511,23.479v10.643h2.612V20.254h-4.887
		C91.715,20.254,92.511,21.92,92.511,23.479z"/>
	<path fill-rule="evenodd" clip-rule="evenodd" fill="#27348B" d="M152.794,26.243l-2.055-1.09
		c-0.754-0.397-1.289-0.769-1.622-1.109c-0.31-0.311-0.469-0.686-0.469-1.14c0-0.5,0.199-0.861,0.582-1.121
		c0.419-0.285,0.911-0.5,1.473-0.429c2.309,0.295,4.755,2.047,4.755,2.047v-3.433c0,0-0.632,0.849-1.719,0.677
		c-0.034-0.006-0.387-0.083-1.18-0.318c-0.766-0.235-1.443-0.36-2.027-0.36c-1.367,0-2.495,0.358-3.352,1.095
		c-0.85,0.731-1.273,1.649-1.273,2.734c0,0.844,0.37,1.612,1.08,2.292c0.383,0.358,0.889,0.705,1.507,1.041l1.999,1.069
		c1.152,0.618,1.872,1.062,2.2,1.343c0.489,0.433,0.726,0.931,0.726,1.508c0,0.658-0.245,1.141-0.707,1.482
		c-0.478,0.359-0.667,0.53-1.713,0.539c-2.169,0.017-3.819-1.304-4.752-2.299v2.031c0.975,0.667,2.718,1.585,4.936,1.585
		c1.506,0,2.767-0.37,3.759-1.132c0.999-0.76,1.504-1.717,1.504-2.854c-0.001-0.842-0.281-1.587-0.847-2.217
		C155.037,27.578,154.092,26.93,152.794,26.243z"/>
</g>
</svg>
